<?xml version="1.0" encoding="UTF-8" standalone="no"?>
<!DOCTYPE svg PUBLIC "-//W3C//DTD SVG 1.1//EN"
 "http://www.w3.org/Graphics/SVG/1.1/DTD/svg11.dtd">
<!-- Generated by graphviz version 5.0.0 (20220707.1540)
 -->
<!-- Title: dependencies Pages: 1 -->
<svg width="415pt" height="247pt"
 viewBox="0.00 0.00 415.00 246.80" xmlns="http://www.w3.org/2000/svg" xmlns:xlink="http://www.w3.org/1999/xlink">
<g id="graph0" class="graph" transform="scale(1 1) rotate(0) translate(4 242.8)">
<title>dependencies</title>
<polygon fill="white" stroke="transparent" points="-4,4 -4,-242.8 411,-242.8 411,4 -4,4"/>
<text text-anchor="middle" x="203.5" y="-8.2" font-family="sans-serif" font-size="14.00">dependencies</text>
<g id="clust1" class="cluster">
<title>cluster_CoursesModule</title>
<polygon fill="none" stroke="black" stroke-dasharray="1,5" points="8,-32.8 8,-230.8 399,-230.8 399,-32.8 8,-32.8"/>
</g>
<g id="clust4" class="cluster">
<title>cluster_CoursesModule_exports</title>
<polygon fill="none" stroke="black" points="16,-170.8 16,-222.8 391,-222.8 391,-170.8 16,-170.8"/>
</g>
<g id="clust6" class="cluster">
<title>cluster_CoursesModule_providers</title>
<polygon fill="none" stroke="black" points="52,-40.8 52,-92.8 355,-92.8 355,-40.8 52,-40.8"/>
</g>
<!-- CertificateService  -->
<g id="node1" class="node">
<title>CertificateService </title>
<polygon fill="#fb8072" stroke="black" points="383.06,-214.8 262.94,-214.8 262.94,-178.8 383.06,-178.8 383.06,-214.8"/>
<text text-anchor="middle" x="323" y="-192.6" font-family="Times,serif" font-size="14.00">CertificateService </text>
</g>
<!-- CourseService  -->
<g id="node2" class="node">
<title>CourseService </title>
<polygon fill="#fb8072" stroke="black" points="244.64,-214.8 143.36,-214.8 143.36,-178.8 244.64,-178.8 244.64,-214.8"/>
<text text-anchor="middle" x="194" y="-192.6" font-family="Times,serif" font-size="14.00">CourseService </text>
</g>
<!-- LessonService  -->
<g id="node3" class="node">
<title>LessonService </title>
<polygon fill="#fb8072" stroke="black" points="125.64,-214.8 24.36,-214.8 24.36,-178.8 125.64,-178.8 125.64,-214.8"/>
<text text-anchor="middle" x="75" y="-192.6" font-family="Times,serif" font-size="14.00">LessonService </text>
</g>
<!-- CoursesModule -->
<g id="node4" class="node">
<title>CoursesModule</title>
<polygon fill="#8dd3c7" stroke="black" points="246.16,-149.8 243.16,-153.8 222.16,-153.8 219.16,-149.8 141.84,-149.8 141.84,-113.8 246.16,-113.8 246.16,-149.8"/>
<text text-anchor="middle" x="194" y="-127.6" font-family="Times,serif" font-size="14.00">CoursesModule</text>
</g>
<!-- CoursesModule&#45;&gt;CertificateService  -->
<g id="edge1" class="edge">
<title>CoursesModule&#45;&gt;CertificateService </title>
<path fill="none" stroke="black" stroke-dasharray="5,2" d="M246.27,-131.8C275.07,-131.8 305.04,-131.8 305.04,-131.8 305.04,-131.8 305.04,-168.69 305.04,-168.69"/>
<polygon fill="black" stroke="black" points="301.54,-168.69 305.04,-178.69 308.54,-168.69 301.54,-168.69"/>
</g>
<!-- CoursesModule&#45;&gt;CourseService  -->
<g id="edge2" class="edge">
<title>CoursesModule&#45;&gt;CourseService </title>
<path fill="none" stroke="black" stroke-dasharray="5,2" d="M194,-149.91C194,-149.91 194,-168.79 194,-168.79"/>
<polygon fill="black" stroke="black" points="190.5,-168.79 194,-178.79 197.5,-168.79 190.5,-168.79"/>
</g>
<!-- CoursesModule&#45;&gt;LessonService  -->
<g id="edge3" class="edge">
<title>CoursesModule&#45;&gt;LessonService </title>
<path fill="none" stroke="black" stroke-dasharray="5,2" d="M141.82,-131.8C116.98,-131.8 92.61,-131.8 92.61,-131.8 92.61,-131.8 92.61,-168.69 92.61,-168.69"/>
<polygon fill="black" stroke="black" points="89.11,-168.69 92.61,-178.69 96.11,-168.69 89.11,-168.69"/>
</g>
<!-- CourseService -->
<g id="node5" class="node">
<title>CourseService</title>
<ellipse fill="#fdb462" stroke="black" cx="280" cy="-66.8" rx="67.2" ry="18"/>
<text text-anchor="middle" x="280" y="-62.6" font-family="Times,serif" font-size="14.00">CourseService</text>
</g>
<!-- CourseService&#45;&gt;CoursesModule -->
<g id="edge4" class="edge">
<title>CourseService&#45;&gt;CoursesModule</title>
<path fill="none" stroke="black" d="M229.49,-78.72C229.49,-78.72 229.49,-103.57 229.49,-103.57"/>
<polygon fill="black" stroke="black" points="225.99,-103.57 229.49,-113.57 232.99,-103.57 225.99,-103.57"/>
</g>
<!-- LessonService -->
<g id="node6" class="node">
<title>LessonService</title>
<ellipse fill="#fdb462" stroke="black" cx="127" cy="-66.8" rx="67.2" ry="18"/>
<text text-anchor="middle" x="127" y="-62.6" font-family="Times,serif" font-size="14.00">LessonService</text>
</g>
<!-- LessonService&#45;&gt;CoursesModule -->
<g id="edge5" class="edge">
<title>LessonService&#45;&gt;CoursesModule</title>
<path fill="none" stroke="black" d="M168.01,-81.23C168.01,-81.23 168.01,-103.69 168.01,-103.69"/>
<polygon fill="black" stroke="black" points="164.51,-103.69 168.01,-113.69 171.51,-103.69 164.51,-103.69"/>
</g>
</g>
</svg>
