<?xml version="1.0" encoding="UTF-8" standalone="no"?>
<!DOCTYPE svg PUBLIC "-//W3C//DTD SVG 1.1//EN"
 "http://www.w3.org/Graphics/SVG/1.1/DTD/svg11.dtd">
<!-- Generated by graphviz version 5.0.0 (20220707.1540)
 -->
<!-- Title: dependencies Pages: 1 -->
<svg width="318pt" height="247pt"
 viewBox="0.00 0.00 318.00 246.80" xmlns="http://www.w3.org/2000/svg" xmlns:xlink="http://www.w3.org/1999/xlink">
<g id="graph0" class="graph" transform="scale(1 1) rotate(0) translate(4 242.8)">
<title>dependencies</title>
<polygon fill="white" stroke="transparent" points="-4,4 -4,-242.8 314,-242.8 314,4 -4,4"/>
<text text-anchor="middle" x="155" y="-8.2" font-family="sans-serif" font-size="14.00">dependencies</text>
<g id="clust1" class="cluster">
<title>cluster_UploadModule</title>
<polygon fill="none" stroke="black" stroke-dasharray="1,5" points="8,-32.8 8,-230.8 302,-230.8 302,-32.8 8,-32.8"/>
</g>
<g id="clust4" class="cluster">
<title>cluster_UploadModule_exports</title>
<polygon fill="none" stroke="black" points="34,-170.8 34,-222.8 252,-222.8 252,-170.8 34,-170.8"/>
</g>
<g id="clust6" class="cluster">
<title>cluster_UploadModule_providers</title>
<polygon fill="none" stroke="black" points="16,-40.8 16,-92.8 294,-92.8 294,-40.8 16,-40.8"/>
</g>
<!-- AlbumService  -->
<g id="node1" class="node">
<title>AlbumService </title>
<polygon fill="#fb8072" stroke="black" points="244.37,-214.8 143.63,-214.8 143.63,-178.8 244.37,-178.8 244.37,-214.8"/>
<text text-anchor="middle" x="194" y="-192.6" font-family="Times,serif" font-size="14.00">AlbumService </text>
</g>
<!-- FileService  -->
<g id="node2" class="node">
<title>FileService </title>
<polygon fill="#fb8072" stroke="black" points="125.76,-214.8 42.24,-214.8 42.24,-178.8 125.76,-178.8 125.76,-214.8"/>
<text text-anchor="middle" x="84" y="-192.6" font-family="Times,serif" font-size="14.00">FileService </text>
</g>
<!-- UploadModule -->
<g id="node3" class="node">
<title>UploadModule</title>
<polygon fill="#8dd3c7" stroke="black" points="152.27,-149.8 149.27,-153.8 128.27,-153.8 125.27,-149.8 51.73,-149.8 51.73,-113.8 152.27,-113.8 152.27,-149.8"/>
<text text-anchor="middle" x="102" y="-127.6" font-family="Times,serif" font-size="14.00">UploadModule</text>
</g>
<!-- UploadModule&#45;&gt;AlbumService  -->
<g id="edge1" class="edge">
<title>UploadModule&#45;&gt;AlbumService </title>
<path fill="none" stroke="black" stroke-dasharray="5,2" d="M148.1,-149.91C148.1,-149.91 148.1,-168.79 148.1,-168.79"/>
<polygon fill="black" stroke="black" points="144.6,-168.79 148.1,-178.79 151.6,-168.79 144.6,-168.79"/>
</g>
<!-- UploadModule&#45;&gt;FileService  -->
<g id="edge2" class="edge">
<title>UploadModule&#45;&gt;FileService </title>
<path fill="none" stroke="black" stroke-dasharray="5,2" d="M88.62,-149.91C88.62,-149.91 88.62,-168.79 88.62,-168.79"/>
<polygon fill="black" stroke="black" points="85.12,-168.79 88.62,-178.79 92.12,-168.79 85.12,-168.79"/>
</g>
<!-- AlbumService -->
<g id="node4" class="node">
<title>AlbumService</title>
<ellipse fill="#fdb462" stroke="black" cx="219" cy="-66.8" rx="66.64" ry="18"/>
<text text-anchor="middle" x="219" y="-62.6" font-family="Times,serif" font-size="14.00">AlbumService</text>
</g>
<!-- AlbumService&#45;&gt;UploadModule -->
<g id="edge3" class="edge">
<title>AlbumService&#45;&gt;UploadModule</title>
<path fill="none" stroke="black" d="M152.1,-66.8C146.6,-66.8 143.1,-66.8 143.1,-66.8 143.1,-66.8 143.1,-103.69 143.1,-103.69"/>
<polygon fill="black" stroke="black" points="139.6,-103.69 143.1,-113.69 146.6,-103.69 139.6,-103.69"/>
</g>
<!-- FileService -->
<g id="node5" class="node">
<title>FileService</title>
<ellipse fill="#fdb462" stroke="black" cx="79" cy="-66.8" rx="55.03" ry="18"/>
<text text-anchor="middle" x="79" y="-62.6" font-family="Times,serif" font-size="14.00">FileService</text>
</g>
<!-- FileService&#45;&gt;UploadModule -->
<g id="edge4" class="edge">
<title>FileService&#45;&gt;UploadModule</title>
<path fill="none" stroke="black" d="M92.82,-84.56C92.82,-84.56 92.82,-103.61 92.82,-103.61"/>
<polygon fill="black" stroke="black" points="89.32,-103.61 92.82,-113.61 96.32,-103.61 89.32,-103.61"/>
</g>
</g>
</svg>
