<?xml version="1.0" encoding="UTF-8" standalone="no"?>
<!DOCTYPE svg PUBLIC "-//W3C//DTD SVG 1.1//EN"
 "http://www.w3.org/Graphics/SVG/1.1/DTD/svg11.dtd">
<!-- Generated by graphviz version 5.0.0 (20220707.1540)
 -->
<!-- Title: dependencies Pages: 1 -->
<svg width="320pt" height="247pt"
 viewBox="0.00 0.00 320.00 246.80" xmlns="http://www.w3.org/2000/svg" xmlns:xlink="http://www.w3.org/1999/xlink">
<g id="graph0" class="graph" transform="scale(1 1) rotate(0) translate(4 242.8)">
<title>dependencies</title>
<polygon fill="white" stroke="transparent" points="-4,4 -4,-242.8 316,-242.8 316,4 -4,4"/>
<text text-anchor="middle" x="156" y="-8.2" font-family="sans-serif" font-size="14.00">dependencies</text>
<g id="clust1" class="cluster">
<title>cluster_UserModule</title>
<polygon fill="none" stroke="black" stroke-dasharray="1,5" points="8,-32.8 8,-230.8 304,-230.8 304,-32.8 8,-32.8"/>
</g>
<g id="clust6" class="cluster">
<title>cluster_UserModule_providers</title>
<polygon fill="none" stroke="black" points="16,-40.8 16,-92.8 296,-92.8 296,-40.8 16,-40.8"/>
</g>
<g id="clust4" class="cluster">
<title>cluster_UserModule_exports</title>
<polygon fill="none" stroke="black" points="35,-170.8 35,-222.8 255,-222.8 255,-170.8 35,-170.8"/>
</g>
<!-- UserService  -->
<g id="node1" class="node">
<title>UserService </title>
<polygon fill="#fb8072" stroke="black" points="246.91,-214.8 159.09,-214.8 159.09,-178.8 246.91,-178.8 246.91,-214.8"/>
<text text-anchor="middle" x="203" y="-192.6" font-family="Times,serif" font-size="14.00">UserService </text>
</g>
<!-- VerifyService  -->
<g id="node2" class="node">
<title>VerifyService </title>
<polygon fill="#fb8072" stroke="black" points="141.02,-214.8 42.98,-214.8 42.98,-178.8 141.02,-178.8 141.02,-214.8"/>
<text text-anchor="middle" x="92" y="-192.6" font-family="Times,serif" font-size="14.00">VerifyService </text>
</g>
<!-- UserModule -->
<g id="node3" class="node">
<title>UserModule</title>
<polygon fill="#8dd3c7" stroke="black" points="153.99,-149.8 150.99,-153.8 129.99,-153.8 126.99,-149.8 68.01,-149.8 68.01,-113.8 153.99,-113.8 153.99,-149.8"/>
<text text-anchor="middle" x="111" y="-127.6" font-family="Times,serif" font-size="14.00">UserModule</text>
</g>
<!-- UserModule&#45;&gt;UserService  -->
<g id="edge1" class="edge">
<title>UserModule&#45;&gt;UserService </title>
<path fill="none" stroke="black" stroke-dasharray="5,2" d="M147.5,-149.91C147.5,-169.14 147.5,-196.8 147.5,-196.8 147.5,-196.8 149,-196.8 149,-196.8"/>
<polygon fill="black" stroke="black" points="149,-200.3 159,-196.8 149,-193.3 149,-200.3"/>
</g>
<!-- UserModule&#45;&gt;VerifyService  -->
<g id="edge2" class="edge">
<title>UserModule&#45;&gt;VerifyService </title>
<path fill="none" stroke="black" stroke-dasharray="5,2" d="M104.51,-149.91C104.51,-149.91 104.51,-168.79 104.51,-168.79"/>
<polygon fill="black" stroke="black" points="101.01,-168.79 104.51,-178.79 108.01,-168.79 101.01,-168.79"/>
</g>
<!-- UserService -->
<g id="node4" class="node">
<title>UserService</title>
<ellipse fill="#fdb462" stroke="black" cx="230" cy="-66.8" rx="58.46" ry="18"/>
<text text-anchor="middle" x="230" y="-62.6" font-family="Times,serif" font-size="14.00">UserService</text>
</g>
<!-- UserService&#45;&gt;UserModule -->
<g id="edge3" class="edge">
<title>UserService&#45;&gt;UserModule</title>
<path fill="none" stroke="black" d="M209.36,-83.88C209.36,-103.14 209.36,-131.8 209.36,-131.8 209.36,-131.8 164.14,-131.8 164.14,-131.8"/>
<polygon fill="black" stroke="black" points="164.14,-128.3 154.14,-131.8 164.14,-135.3 164.14,-128.3"/>
</g>
<!-- VerifyService -->
<g id="node5" class="node">
<title>VerifyService</title>
<ellipse fill="#fdb462" stroke="black" cx="89" cy="-66.8" rx="65.39" ry="18"/>
<text text-anchor="middle" x="89" y="-62.6" font-family="Times,serif" font-size="14.00">VerifyService</text>
</g>
<!-- VerifyService&#45;&gt;UserModule -->
<g id="edge4" class="edge">
<title>VerifyService&#45;&gt;UserModule</title>
<path fill="none" stroke="black" d="M111,-83.88C111,-83.88 111,-103.7 111,-103.7"/>
<polygon fill="black" stroke="black" points="107.5,-103.7 111,-113.7 114.5,-103.7 107.5,-103.7"/>
</g>
</g>
</svg>
