<?xml version="1.0" encoding="UTF-8" standalone="no"?>
<!DOCTYPE svg PUBLIC "-//W3C//DTD SVG 1.1//EN"
 "http://www.w3.org/Graphics/SVG/1.1/DTD/svg11.dtd">
<!-- Generated by graphviz version 5.0.0 (20220707.1540)
 -->
<!-- Title: dependencies Pages: 1 -->
<svg width="504pt" height="247pt"
 viewBox="0.00 0.00 504.00 246.80" xmlns="http://www.w3.org/2000/svg" xmlns:xlink="http://www.w3.org/1999/xlink">
<g id="graph0" class="graph" transform="scale(1 1) rotate(0) translate(4 242.8)">
<title>dependencies</title>
<polygon fill="white" stroke="transparent" points="-4,4 -4,-242.8 500,-242.8 500,4 -4,4"/>
<text text-anchor="middle" x="248" y="-8.2" font-family="sans-serif" font-size="14.00">dependencies</text>
<g id="clust1" class="cluster">
<title>cluster_JobsModule</title>
<polygon fill="none" stroke="black" stroke-dasharray="1,5" points="8,-32.8 8,-230.8 488,-230.8 488,-32.8 8,-32.8"/>
</g>
<g id="clust6" class="cluster">
<title>cluster_JobsModule_providers</title>
<polygon fill="none" stroke="black" points="16,-40.8 16,-92.8 480,-92.8 480,-40.8 16,-40.8"/>
</g>
<g id="clust4" class="cluster">
<title>cluster_JobsModule_exports</title>
<polygon fill="none" stroke="black" points="66,-170.8 66,-222.8 427,-222.8 427,-170.8 66,-170.8"/>
</g>
<!-- ApplicantService  -->
<g id="node1" class="node">
<title>ApplicantService </title>
<polygon fill="#fb8072" stroke="black" points="419.19,-214.8 302.81,-214.8 302.81,-178.8 419.19,-178.8 419.19,-214.8"/>
<text text-anchor="middle" x="361" y="-192.6" font-family="Times,serif" font-size="14.00">ApplicantService </text>
</g>
<!-- JobsService  -->
<g id="node2" class="node">
<title>JobsService </title>
<polygon fill="#fb8072" stroke="black" points="284.38,-214.8 197.62,-214.8 197.62,-178.8 284.38,-178.8 284.38,-214.8"/>
<text text-anchor="middle" x="241" y="-192.6" font-family="Times,serif" font-size="14.00">JobsService </text>
</g>
<!-- ResumeService  -->
<g id="node3" class="node">
<title>ResumeService </title>
<polygon fill="#fb8072" stroke="black" points="180.08,-214.8 73.92,-214.8 73.92,-178.8 180.08,-178.8 180.08,-214.8"/>
<text text-anchor="middle" x="127" y="-192.6" font-family="Times,serif" font-size="14.00">ResumeService </text>
</g>
<!-- JobsModule -->
<g id="node4" class="node">
<title>JobsModule</title>
<polygon fill="#8dd3c7" stroke="black" points="283.45,-149.8 280.45,-153.8 259.45,-153.8 256.45,-149.8 198.55,-149.8 198.55,-113.8 283.45,-113.8 283.45,-149.8"/>
<text text-anchor="middle" x="241" y="-127.6" font-family="Times,serif" font-size="14.00">JobsModule</text>
</g>
<!-- JobsModule&#45;&gt;ApplicantService  -->
<g id="edge1" class="edge">
<title>JobsModule&#45;&gt;ApplicantService </title>
<path fill="none" stroke="black" stroke-dasharray="5,2" d="M283.47,-137.8C297.36,-137.8 309.29,-137.8 309.29,-137.8 309.29,-137.8 309.29,-168.78 309.29,-168.78"/>
<polygon fill="black" stroke="black" points="305.79,-168.78 309.29,-178.78 312.79,-168.78 305.79,-168.78"/>
</g>
<!-- JobsModule&#45;&gt;JobsService  -->
<g id="edge2" class="edge">
<title>JobsModule&#45;&gt;JobsService </title>
<path fill="none" stroke="black" stroke-dasharray="5,2" d="M241,-149.91C241,-149.91 241,-168.79 241,-168.79"/>
<polygon fill="black" stroke="black" points="237.5,-168.79 241,-178.79 244.5,-168.79 237.5,-168.79"/>
</g>
<!-- JobsModule&#45;&gt;ResumeService  -->
<g id="edge3" class="edge">
<title>JobsModule&#45;&gt;ResumeService </title>
<path fill="none" stroke="black" stroke-dasharray="5,2" d="M198.45,-137.8C184.82,-137.8 173.2,-137.8 173.2,-137.8 173.2,-137.8 173.2,-168.78 173.2,-168.78"/>
<polygon fill="black" stroke="black" points="169.7,-168.78 173.2,-178.78 176.7,-168.78 169.7,-168.78"/>
</g>
<!-- ApplicantService -->
<g id="node5" class="node">
<title>ApplicantService</title>
<ellipse fill="#fdb462" stroke="black" cx="394" cy="-66.8" rx="78.15" ry="18"/>
<text text-anchor="middle" x="394" y="-62.6" font-family="Times,serif" font-size="14.00">ApplicantService</text>
</g>
<!-- ApplicantService&#45;&gt;JobsModule -->
<g id="edge4" class="edge">
<title>ApplicantService&#45;&gt;JobsModule</title>
<path fill="none" stroke="black" d="M367.63,-83.87C367.63,-101.29 367.63,-125.8 367.63,-125.8 367.63,-125.8 293.52,-125.8 293.52,-125.8"/>
<polygon fill="black" stroke="black" points="293.52,-122.3 283.52,-125.8 293.52,-129.3 293.52,-122.3"/>
</g>
<!-- JobsService -->
<g id="node6" class="node">
<title>JobsService</title>
<ellipse fill="#fdb462" stroke="black" cx="241" cy="-66.8" rx="57.33" ry="18"/>
<text text-anchor="middle" x="241" y="-62.6" font-family="Times,serif" font-size="14.00">JobsService</text>
</g>
<!-- JobsService&#45;&gt;JobsModule -->
<g id="edge5" class="edge">
<title>JobsService&#45;&gt;JobsModule</title>
<path fill="none" stroke="black" d="M241,-84.91C241,-84.91 241,-103.79 241,-103.79"/>
<polygon fill="black" stroke="black" points="237.5,-103.79 241,-113.79 244.5,-103.79 237.5,-103.79"/>
</g>
<!-- ResumeService -->
<g id="node7" class="node">
<title>ResumeService</title>
<ellipse fill="#fdb462" stroke="black" cx="95" cy="-66.8" rx="71.21" ry="18"/>
<text text-anchor="middle" x="95" y="-62.6" font-family="Times,serif" font-size="14.00">ResumeService</text>
</g>
<!-- ResumeService&#45;&gt;JobsModule -->
<g id="edge6" class="edge">
<title>ResumeService&#45;&gt;JobsModule</title>
<path fill="none" stroke="black" d="M119.91,-83.87C119.91,-101.29 119.91,-125.8 119.91,-125.8 119.91,-125.8 188.65,-125.8 188.65,-125.8"/>
<polygon fill="black" stroke="black" points="188.65,-129.3 198.65,-125.8 188.65,-122.3 188.65,-129.3"/>
</g>
</g>
</svg>
