<?xml version="1.0" encoding="UTF-8" standalone="no"?>
<!DOCTYPE svg PUBLIC "-//W3C//DTD SVG 1.1//EN"
 "http://www.w3.org/Graphics/SVG/1.1/DTD/svg11.dtd">
<!-- Generated by graphviz version 5.0.0 (20220707.1540)
 -->
<!-- Title: dependencies Pages: 1 -->
<svg width="488pt" height="247pt"
 viewBox="0.00 0.00 488.00 246.80" xmlns="http://www.w3.org/2000/svg" xmlns:xlink="http://www.w3.org/1999/xlink">
<g id="graph0" class="graph" transform="scale(1 1) rotate(0) translate(4 242.8)">
<title>dependencies</title>
<polygon fill="white" stroke="transparent" points="-4,4 -4,-242.8 484,-242.8 484,4 -4,4"/>
<text text-anchor="middle" x="240" y="-8.2" font-family="sans-serif" font-size="14.00">dependencies</text>
<g id="clust1" class="cluster">
<title>cluster_ProfileModule</title>
<polygon fill="none" stroke="black" stroke-dasharray="1,5" points="8,-32.8 8,-230.8 472,-230.8 472,-32.8 8,-32.8"/>
</g>
<g id="clust6" class="cluster">
<title>cluster_ProfileModule_providers</title>
<polygon fill="none" stroke="black" points="16,-40.8 16,-92.8 464,-92.8 464,-40.8 16,-40.8"/>
</g>
<g id="clust4" class="cluster">
<title>cluster_ProfileModule_exports</title>
<polygon fill="none" stroke="black" points="70,-170.8 70,-222.8 418,-222.8 418,-170.8 70,-170.8"/>
</g>
<!-- PageService  -->
<g id="node1" class="node">
<title>PageService </title>
<polygon fill="#fb8072" stroke="black" points="410.19,-214.8 321.81,-214.8 321.81,-178.8 410.19,-178.8 410.19,-214.8"/>
<text text-anchor="middle" x="366" y="-192.6" font-family="Times,serif" font-size="14.00">PageService </text>
</g>
<!-- ProfileService  -->
<g id="node2" class="node">
<title>ProfileService </title>
<polygon fill="#fb8072" stroke="black" points="303.58,-214.8 204.42,-214.8 204.42,-178.8 303.58,-178.8 303.58,-214.8"/>
<text text-anchor="middle" x="254" y="-192.6" font-family="Times,serif" font-size="14.00">ProfileService </text>
</g>
<!-- RelationService  -->
<g id="node3" class="node">
<title>RelationService </title>
<polygon fill="#fb8072" stroke="black" points="186.41,-214.8 77.59,-214.8 77.59,-178.8 186.41,-178.8 186.41,-214.8"/>
<text text-anchor="middle" x="132" y="-192.6" font-family="Times,serif" font-size="14.00">RelationService </text>
</g>
<!-- ProfileModule -->
<g id="node4" class="node">
<title>ProfileModule</title>
<polygon fill="#8dd3c7" stroke="black" points="302.66,-149.8 299.66,-153.8 278.66,-153.8 275.66,-149.8 205.34,-149.8 205.34,-113.8 302.66,-113.8 302.66,-149.8"/>
<text text-anchor="middle" x="254" y="-127.6" font-family="Times,serif" font-size="14.00">ProfileModule</text>
</g>
<!-- ProfileModule&#45;&gt;PageService  -->
<g id="edge1" class="edge">
<title>ProfileModule&#45;&gt;PageService </title>
<path fill="none" stroke="black" stroke-dasharray="5,2" d="M302.96,-137.8C317.65,-137.8 329.94,-137.8 329.94,-137.8 329.94,-137.8 329.94,-168.78 329.94,-168.78"/>
<polygon fill="black" stroke="black" points="326.44,-168.78 329.94,-178.78 333.44,-168.78 326.44,-168.78"/>
</g>
<!-- ProfileModule&#45;&gt;ProfileService  -->
<g id="edge2" class="edge">
<title>ProfileModule&#45;&gt;ProfileService </title>
<path fill="none" stroke="black" stroke-dasharray="5,2" d="M254,-149.91C254,-149.91 254,-168.79 254,-168.79"/>
<polygon fill="black" stroke="black" points="250.5,-168.79 254,-178.79 257.5,-168.79 250.5,-168.79"/>
</g>
<!-- ProfileModule&#45;&gt;RelationService  -->
<g id="edge3" class="edge">
<title>ProfileModule&#45;&gt;RelationService </title>
<path fill="none" stroke="black" stroke-dasharray="5,2" d="M205.06,-137.8C190.37,-137.8 178.08,-137.8 178.08,-137.8 178.08,-137.8 178.08,-168.78 178.08,-168.78"/>
<polygon fill="black" stroke="black" points="174.58,-168.78 178.08,-178.78 181.58,-168.78 174.58,-168.78"/>
</g>
<!-- PageService -->
<g id="node5" class="node">
<title>PageService</title>
<ellipse fill="#fdb462" stroke="black" cx="397" cy="-66.8" rx="58.53" ry="18"/>
<text text-anchor="middle" x="397" y="-62.6" font-family="Times,serif" font-size="14.00">PageService</text>
</g>
<!-- PageService&#45;&gt;ProfileModule -->
<g id="edge4" class="edge">
<title>PageService&#45;&gt;ProfileModule</title>
<path fill="none" stroke="black" d="M374.29,-83.55C374.29,-100.99 374.29,-125.8 374.29,-125.8 374.29,-125.8 312.93,-125.8 312.93,-125.8"/>
<polygon fill="black" stroke="black" points="312.93,-122.3 302.93,-125.8 312.93,-129.3 312.93,-122.3"/>
</g>
<!-- ProfileService -->
<g id="node6" class="node">
<title>ProfileService</title>
<ellipse fill="#fdb462" stroke="black" cx="254" cy="-66.8" rx="66.05" ry="18"/>
<text text-anchor="middle" x="254" y="-62.6" font-family="Times,serif" font-size="14.00">ProfileService</text>
</g>
<!-- ProfileService&#45;&gt;ProfileModule -->
<g id="edge5" class="edge">
<title>ProfileService&#45;&gt;ProfileModule</title>
<path fill="none" stroke="black" d="M254,-84.91C254,-84.91 254,-103.79 254,-103.79"/>
<polygon fill="black" stroke="black" points="250.5,-103.79 254,-113.79 257.5,-103.79 250.5,-103.79"/>
</g>
<!-- RelationService -->
<g id="node7" class="node">
<title>RelationService</title>
<ellipse fill="#fdb462" stroke="black" cx="97" cy="-66.8" rx="72.93" ry="18"/>
<text text-anchor="middle" x="97" y="-62.6" font-family="Times,serif" font-size="14.00">RelationService</text>
</g>
<!-- RelationService&#45;&gt;ProfileModule -->
<g id="edge6" class="edge">
<title>RelationService&#45;&gt;ProfileModule</title>
<path fill="none" stroke="black" d="M123.63,-83.87C123.63,-101.29 123.63,-125.8 123.63,-125.8 123.63,-125.8 195.08,-125.8 195.08,-125.8"/>
<polygon fill="black" stroke="black" points="195.08,-129.3 205.08,-125.8 195.08,-122.3 195.08,-129.3"/>
</g>
</g>
</svg>
