<?xml version="1.0" encoding="UTF-8" standalone="no"?>
<!DOCTYPE svg PUBLIC "-//W3C//DTD SVG 1.1//EN"
 "http://www.w3.org/Graphics/SVG/1.1/DTD/svg11.dtd">
<!-- Generated by graphviz version 5.0.0 (20220707.1540)
 -->
<!-- Title: dependencies Pages: 1 -->
<svg width="630pt" height="247pt"
 viewBox="0.00 0.00 630.00 246.80" xmlns="http://www.w3.org/2000/svg" xmlns:xlink="http://www.w3.org/1999/xlink">
<g id="graph0" class="graph" transform="scale(1 1) rotate(0) translate(4 242.8)">
<title>dependencies</title>
<polygon fill="white" stroke="transparent" points="-4,4 -4,-242.8 626,-242.8 626,4 -4,4"/>
<text text-anchor="middle" x="311" y="-8.2" font-family="sans-serif" font-size="14.00">dependencies</text>
<g id="clust1" class="cluster">
<title>cluster_ShopModule</title>
<polygon fill="none" stroke="black" stroke-dasharray="1,5" points="8,-32.8 8,-230.8 614,-230.8 614,-32.8 8,-32.8"/>
</g>
<g id="clust6" class="cluster">
<title>cluster_ShopModule_providers</title>
<polygon fill="none" stroke="black" points="16,-40.8 16,-92.8 606,-92.8 606,-40.8 16,-40.8"/>
</g>
<g id="clust4" class="cluster">
<title>cluster_ShopModule_exports</title>
<polygon fill="none" stroke="black" points="61,-170.8 61,-222.8 523,-222.8 523,-170.8 61,-170.8"/>
</g>
<!-- ItemService  -->
<g id="node1" class="node">
<title>ItemService </title>
<polygon fill="#fb8072" stroke="black" points="514.63,-214.8 427.37,-214.8 427.37,-178.8 514.63,-178.8 514.63,-214.8"/>
<text text-anchor="middle" x="471" y="-192.6" font-family="Times,serif" font-size="14.00">ItemService </text>
</g>
<!-- OrderService  -->
<g id="node2" class="node">
<title>OrderService </title>
<polygon fill="#fb8072" stroke="black" points="409.13,-214.8 314.87,-214.8 314.87,-178.8 409.13,-178.8 409.13,-214.8"/>
<text text-anchor="middle" x="362" y="-192.6" font-family="Times,serif" font-size="14.00">OrderService </text>
</g>
<!-- ProductService  -->
<g id="node3" class="node">
<title>ProductService </title>
<polygon fill="#fb8072" stroke="black" points="296.53,-214.8 191.47,-214.8 191.47,-178.8 296.53,-178.8 296.53,-214.8"/>
<text text-anchor="middle" x="244" y="-192.6" font-family="Times,serif" font-size="14.00">ProductService </text>
</g>
<!-- ReviewService  -->
<g id="node4" class="node">
<title>ReviewService </title>
<polygon fill="#fb8072" stroke="black" points="173.25,-214.8 68.75,-214.8 68.75,-178.8 173.25,-178.8 173.25,-214.8"/>
<text text-anchor="middle" x="121" y="-192.6" font-family="Times,serif" font-size="14.00">ReviewService </text>
</g>
<!-- ShopModule -->
<g id="node5" class="node">
<title>ShopModule</title>
<polygon fill="#8dd3c7" stroke="black" points="333.34,-149.8 330.34,-153.8 309.34,-153.8 306.34,-149.8 244.66,-149.8 244.66,-113.8 333.34,-113.8 333.34,-149.8"/>
<text text-anchor="middle" x="289" y="-127.6" font-family="Times,serif" font-size="14.00">ShopModule</text>
</g>
<!-- ShopModule&#45;&gt;ItemService  -->
<g id="edge1" class="edge">
<title>ShopModule&#45;&gt;ItemService </title>
<path fill="none" stroke="black" stroke-dasharray="5,2" d="M333.56,-137.8C379.97,-137.8 445.97,-137.8 445.97,-137.8 445.97,-137.8 445.97,-168.78 445.97,-168.78"/>
<polygon fill="black" stroke="black" points="442.47,-168.78 445.97,-178.78 449.47,-168.78 442.47,-168.78"/>
</g>
<!-- ShopModule&#45;&gt;OrderService  -->
<g id="edge2" class="edge">
<title>ShopModule&#45;&gt;OrderService </title>
<path fill="none" stroke="black" stroke-dasharray="5,2" d="M324.05,-149.91C324.05,-149.91 324.05,-168.79 324.05,-168.79"/>
<polygon fill="black" stroke="black" points="320.55,-168.79 324.05,-178.79 327.55,-168.79 320.55,-168.79"/>
</g>
<!-- ShopModule&#45;&gt;ProductService  -->
<g id="edge3" class="edge">
<title>ShopModule&#45;&gt;ProductService </title>
<path fill="none" stroke="black" stroke-dasharray="5,2" d="M270.67,-149.91C270.67,-149.91 270.67,-168.79 270.67,-168.79"/>
<polygon fill="black" stroke="black" points="267.17,-168.79 270.67,-178.79 274.17,-168.79 267.17,-168.79"/>
</g>
<!-- ShopModule&#45;&gt;ReviewService  -->
<g id="edge4" class="edge">
<title>ShopModule&#45;&gt;ReviewService </title>
<path fill="none" stroke="black" stroke-dasharray="5,2" d="M244.56,-137.8C209.97,-137.8 167.81,-137.8 167.81,-137.8 167.81,-137.8 167.81,-168.78 167.81,-168.78"/>
<polygon fill="black" stroke="black" points="164.31,-168.78 167.81,-178.78 171.31,-168.78 164.31,-168.78"/>
</g>
<!-- ItemService -->
<g id="node6" class="node">
<title>ItemService</title>
<ellipse fill="#fdb462" stroke="black" cx="540" cy="-66.8" rx="57.88" ry="18"/>
<text text-anchor="middle" x="540" y="-62.6" font-family="Times,serif" font-size="14.00">ItemService</text>
</g>
<!-- ItemService&#45;&gt;ShopModule -->
<g id="edge5" class="edge">
<title>ItemService&#45;&gt;ShopModule</title>
<path fill="none" stroke="black" d="M498.44,-79.31C498.44,-96.63 498.44,-125.8 498.44,-125.8 498.44,-125.8 343.42,-125.8 343.42,-125.8"/>
<polygon fill="black" stroke="black" points="343.42,-122.3 333.42,-125.8 343.42,-129.3 343.42,-122.3"/>
</g>
<!-- OrderService -->
<g id="node7" class="node">
<title>OrderService</title>
<ellipse fill="#fdb462" stroke="black" cx="402" cy="-66.8" rx="62.53" ry="18"/>
<text text-anchor="middle" x="402" y="-62.6" font-family="Times,serif" font-size="14.00">OrderService</text>
</g>
<!-- OrderService&#45;&gt;ShopModule -->
<g id="edge6" class="edge">
<title>OrderService&#45;&gt;ShopModule</title>
<path fill="none" stroke="black" d="M339.47,-66.8C332.08,-66.8 327.1,-66.8 327.1,-66.8 327.1,-66.8 327.1,-103.69 327.1,-103.69"/>
<polygon fill="black" stroke="black" points="323.6,-103.69 327.1,-113.69 330.6,-103.69 323.6,-103.69"/>
</g>
<!-- ProductService -->
<g id="node8" class="node">
<title>ProductService</title>
<ellipse fill="#fdb462" stroke="black" cx="251" cy="-66.8" rx="70.07" ry="18"/>
<text text-anchor="middle" x="251" y="-62.6" font-family="Times,serif" font-size="14.00">ProductService</text>
</g>
<!-- ProductService&#45;&gt;ShopModule -->
<g id="edge7" class="edge">
<title>ProductService&#45;&gt;ShopModule</title>
<path fill="none" stroke="black" d="M282.93,-82.87C282.93,-82.87 282.93,-103.62 282.93,-103.62"/>
<polygon fill="black" stroke="black" points="279.43,-103.62 282.93,-113.62 286.43,-103.62 279.43,-103.62"/>
</g>
<!-- ReviewService -->
<g id="node9" class="node">
<title>ReviewService</title>
<ellipse fill="#fdb462" stroke="black" cx="93" cy="-66.8" rx="69.48" ry="18"/>
<text text-anchor="middle" x="93" y="-62.6" font-family="Times,serif" font-size="14.00">ReviewService</text>
</g>
<!-- ReviewService&#45;&gt;ShopModule -->
<g id="edge8" class="edge">
<title>ReviewService&#45;&gt;ShopModule</title>
<path fill="none" stroke="black" d="M115.68,-83.87C115.68,-101.29 115.68,-125.8 115.68,-125.8 115.68,-125.8 234.82,-125.8 234.82,-125.8"/>
<polygon fill="black" stroke="black" points="234.82,-129.3 244.82,-125.8 234.82,-122.3 234.82,-129.3"/>
</g>
</g>
</svg>
