<?xml version="1.0" encoding="UTF-8" standalone="no"?>
<!DOCTYPE svg PUBLIC "-//W3C//DTD SVG 1.1//EN"
 "http://www.w3.org/Graphics/SVG/1.1/DTD/svg11.dtd">
<!-- Generated by graphviz version 5.0.0 (20220707.1540)
 -->
<!-- Title: dependencies Pages: 1 -->
<svg width="614pt" height="247pt"
 viewBox="0.00 0.00 614.00 246.80" xmlns="http://www.w3.org/2000/svg" xmlns:xlink="http://www.w3.org/1999/xlink">
<g id="graph0" class="graph" transform="scale(1 1) rotate(0) translate(4 242.8)">
<title>dependencies</title>
<polygon fill="white" stroke="transparent" points="-4,4 -4,-242.8 610,-242.8 610,4 -4,4"/>
<text text-anchor="middle" x="303" y="-8.2" font-family="sans-serif" font-size="14.00">dependencies</text>
<g id="clust1" class="cluster">
<title>cluster_PostModule</title>
<polygon fill="none" stroke="black" stroke-dasharray="1,5" points="8,-32.8 8,-230.8 598,-230.8 598,-32.8 8,-32.8"/>
</g>
<g id="clust6" class="cluster">
<title>cluster_PostModule_providers</title>
<polygon fill="none" stroke="black" points="16,-40.8 16,-92.8 590,-92.8 590,-40.8 16,-40.8"/>
</g>
<g id="clust4" class="cluster">
<title>cluster_PostModule_exports</title>
<polygon fill="none" stroke="black" points="58,-170.8 58,-222.8 506,-222.8 506,-170.8 58,-170.8"/>
</g>
<!-- CommentService  -->
<g id="node1" class="node">
<title>CommentService </title>
<polygon fill="#fb8072" stroke="black" points="498.2,-214.8 381.8,-214.8 381.8,-178.8 498.2,-178.8 498.2,-214.8"/>
<text text-anchor="middle" x="440" y="-192.6" font-family="Times,serif" font-size="14.00">CommentService </text>
</g>
<!-- PostService  -->
<g id="node2" class="node">
<title>PostService </title>
<polygon fill="#fb8072" stroke="black" points="363.6,-214.8 278.4,-214.8 278.4,-178.8 363.6,-178.8 363.6,-214.8"/>
<text text-anchor="middle" x="321" y="-192.6" font-family="Times,serif" font-size="14.00">PostService </text>
</g>
<!-- ReactService  -->
<g id="node3" class="node">
<title>ReactService </title>
<polygon fill="#fb8072" stroke="black" points="260.85,-214.8 167.15,-214.8 167.15,-178.8 260.85,-178.8 260.85,-214.8"/>
<text text-anchor="middle" x="214" y="-192.6" font-family="Times,serif" font-size="14.00">ReactService </text>
</g>
<!-- TagService  -->
<g id="node4" class="node">
<title>TagService </title>
<polygon fill="#fb8072" stroke="black" points="149.75,-214.8 66.25,-214.8 66.25,-178.8 149.75,-178.8 149.75,-214.8"/>
<text text-anchor="middle" x="108" y="-192.6" font-family="Times,serif" font-size="14.00">TagService </text>
</g>
<!-- PostModule -->
<g id="node5" class="node">
<title>PostModule</title>
<polygon fill="#8dd3c7" stroke="black" points="297.68,-149.8 294.68,-153.8 273.68,-153.8 270.68,-149.8 214.32,-149.8 214.32,-113.8 297.68,-113.8 297.68,-149.8"/>
<text text-anchor="middle" x="256" y="-127.6" font-family="Times,serif" font-size="14.00">PostModule</text>
</g>
<!-- PostModule&#45;&gt;CommentService  -->
<g id="edge1" class="edge">
<title>PostModule&#45;&gt;CommentService </title>
<path fill="none" stroke="black" stroke-dasharray="5,2" d="M297.97,-137.8C338.78,-137.8 394.64,-137.8 394.64,-137.8 394.64,-137.8 394.64,-168.78 394.64,-168.78"/>
<polygon fill="black" stroke="black" points="391.14,-168.78 394.64,-178.78 398.14,-168.78 391.14,-168.78"/>
</g>
<!-- PostModule&#45;&gt;PostService  -->
<g id="edge2" class="edge">
<title>PostModule&#45;&gt;PostService </title>
<path fill="none" stroke="black" stroke-dasharray="5,2" d="M288.02,-149.91C288.02,-149.91 288.02,-168.79 288.02,-168.79"/>
<polygon fill="black" stroke="black" points="284.52,-168.79 288.02,-178.79 291.52,-168.79 284.52,-168.79"/>
</g>
<!-- PostModule&#45;&gt;ReactService  -->
<g id="edge3" class="edge">
<title>PostModule&#45;&gt;ReactService </title>
<path fill="none" stroke="black" stroke-dasharray="5,2" d="M237.42,-149.91C237.42,-149.91 237.42,-168.79 237.42,-168.79"/>
<polygon fill="black" stroke="black" points="233.92,-168.79 237.42,-178.79 240.92,-168.79 233.92,-168.79"/>
</g>
<!-- PostModule&#45;&gt;TagService  -->
<g id="edge4" class="edge">
<title>PostModule&#45;&gt;TagService </title>
<path fill="none" stroke="black" stroke-dasharray="5,2" d="M214.13,-137.8C181.54,-137.8 141.81,-137.8 141.81,-137.8 141.81,-137.8 141.81,-168.78 141.81,-168.78"/>
<polygon fill="black" stroke="black" points="138.31,-168.78 141.81,-178.78 145.31,-168.78 138.31,-168.78"/>
</g>
<!-- CommentService -->
<g id="node6" class="node">
<title>CommentService</title>
<ellipse fill="#fdb462" stroke="black" cx="504" cy="-66.8" rx="78.17" ry="18"/>
<text text-anchor="middle" x="504" y="-62.6" font-family="Times,serif" font-size="14.00">CommentService</text>
</g>
<!-- CommentService&#45;&gt;PostModule -->
<g id="edge5" class="edge">
<title>CommentService&#45;&gt;PostModule</title>
<path fill="none" stroke="black" d="M462.13,-81.99C462.13,-99.48 462.13,-125.8 462.13,-125.8 462.13,-125.8 307.71,-125.8 307.71,-125.8"/>
<polygon fill="black" stroke="black" points="307.71,-122.3 297.71,-125.8 307.71,-129.3 307.71,-122.3"/>
</g>
<!-- PostService -->
<g id="node7" class="node">
<title>PostService</title>
<ellipse fill="#fdb462" stroke="black" cx="351" cy="-66.8" rx="56.77" ry="18"/>
<text text-anchor="middle" x="351" y="-62.6" font-family="Times,serif" font-size="14.00">PostService</text>
</g>
<!-- PostService&#45;&gt;PostModule -->
<g id="edge6" class="edge">
<title>PostService&#45;&gt;PostModule</title>
<path fill="none" stroke="black" d="M294.32,-66.8C288.79,-66.8 285.17,-66.8 285.17,-66.8 285.17,-66.8 285.17,-103.69 285.17,-103.69"/>
<polygon fill="black" stroke="black" points="281.67,-103.69 285.17,-113.69 288.67,-103.69 281.67,-103.69"/>
</g>
<!-- ReactService -->
<g id="node8" class="node">
<title>ReactService</title>
<ellipse fill="#fdb462" stroke="black" cx="214" cy="-66.8" rx="61.95" ry="18"/>
<text text-anchor="middle" x="214" y="-62.6" font-family="Times,serif" font-size="14.00">ReactService</text>
</g>
<!-- ReactService&#45;&gt;PostModule -->
<g id="edge7" class="edge">
<title>ReactService&#45;&gt;PostModule</title>
<path fill="none" stroke="black" d="M245.07,-82.53C245.07,-82.53 245.07,-103.45 245.07,-103.45"/>
<polygon fill="black" stroke="black" points="241.57,-103.45 245.07,-113.45 248.57,-103.45 241.57,-103.45"/>
</g>
<!-- TagService -->
<g id="node9" class="node">
<title>TagService</title>
<ellipse fill="#fdb462" stroke="black" cx="79" cy="-66.8" rx="55.01" ry="18"/>
<text text-anchor="middle" x="79" y="-62.6" font-family="Times,serif" font-size="14.00">TagService</text>
</g>
<!-- TagService&#45;&gt;PostModule -->
<g id="edge8" class="edge">
<title>TagService&#45;&gt;PostModule</title>
<path fill="none" stroke="black" d="M100.19,-83.55C100.19,-100.99 100.19,-125.8 100.19,-125.8 100.19,-125.8 204.25,-125.8 204.25,-125.8"/>
<polygon fill="black" stroke="black" points="204.25,-129.3 214.25,-125.8 204.25,-122.3 204.25,-129.3"/>
</g>
</g>
</svg>
