<?xml version="1.0" encoding="UTF-8" standalone="no"?>
<!DOCTYPE svg PUBLIC "-//W3C//DTD SVG 1.1//EN"
 "http://www.w3.org/Graphics/SVG/1.1/DTD/svg11.dtd">
<!-- Generated by graphviz version 5.0.0 (20220707.1540)
 -->
<!-- Title: dependencies Pages: 1 -->
<svg width="349pt" height="247pt"
 viewBox="0.00 0.00 349.00 246.80" xmlns="http://www.w3.org/2000/svg" xmlns:xlink="http://www.w3.org/1999/xlink">
<g id="graph0" class="graph" transform="scale(1 1) rotate(0) translate(4 242.8)">
<title>dependencies</title>
<polygon fill="white" stroke="transparent" points="-4,4 -4,-242.8 345,-242.8 345,4 -4,4"/>
<text text-anchor="middle" x="170.5" y="-8.2" font-family="sans-serif" font-size="14.00">dependencies</text>
<g id="clust1" class="cluster">
<title>cluster_GroupModule</title>
<polygon fill="none" stroke="black" stroke-dasharray="1,5" points="8,-32.8 8,-230.8 333,-230.8 333,-32.8 8,-32.8"/>
</g>
<g id="clust6" class="cluster">
<title>cluster_GroupModule_providers</title>
<polygon fill="none" stroke="black" points="16,-40.8 16,-92.8 325,-92.8 325,-40.8 16,-40.8"/>
</g>
<g id="clust4" class="cluster">
<title>cluster_GroupModule_exports</title>
<polygon fill="none" stroke="black" points="38,-170.8 38,-222.8 278,-222.8 278,-170.8 38,-170.8"/>
</g>
<!-- GroupService  -->
<g id="node1" class="node">
<title>GroupService </title>
<polygon fill="#fb8072" stroke="black" points="269.75,-214.8 172.25,-214.8 172.25,-178.8 269.75,-178.8 269.75,-214.8"/>
<text text-anchor="middle" x="221" y="-192.6" font-family="Times,serif" font-size="14.00">GroupService </text>
</g>
<!-- MemberService  -->
<g id="node2" class="node">
<title>MemberService </title>
<polygon fill="#fb8072" stroke="black" points="154.41,-214.8 45.59,-214.8 45.59,-178.8 154.41,-178.8 154.41,-214.8"/>
<text text-anchor="middle" x="100" y="-192.6" font-family="Times,serif" font-size="14.00">MemberService </text>
</g>
<!-- GroupModule -->
<g id="node3" class="node">
<title>GroupModule</title>
<polygon fill="#8dd3c7" stroke="black" points="169.82,-149.8 166.82,-153.8 145.82,-153.8 142.82,-149.8 74.18,-149.8 74.18,-113.8 169.82,-113.8 169.82,-149.8"/>
<text text-anchor="middle" x="122" y="-127.6" font-family="Times,serif" font-size="14.00">GroupModule</text>
</g>
<!-- GroupModule&#45;&gt;GroupService  -->
<g id="edge1" class="edge">
<title>GroupModule&#45;&gt;GroupService </title>
<path fill="none" stroke="black" stroke-dasharray="5,2" d="M162.06,-149.91C162.06,-169.14 162.06,-196.8 162.06,-196.8 162.06,-196.8 163.08,-196.8 163.08,-196.8"/>
<polygon fill="black" stroke="black" points="162.32,-200.3 172.32,-196.8 162.32,-193.3 162.32,-200.3"/>
</g>
<!-- GroupModule&#45;&gt;MemberService  -->
<g id="edge2" class="edge">
<title>GroupModule&#45;&gt;MemberService </title>
<path fill="none" stroke="black" stroke-dasharray="5,2" d="M114.4,-149.91C114.4,-149.91 114.4,-168.79 114.4,-168.79"/>
<polygon fill="black" stroke="black" points="110.9,-168.79 114.4,-178.79 117.9,-168.79 110.9,-168.79"/>
</g>
<!-- GroupService -->
<g id="node4" class="node">
<title>GroupService</title>
<ellipse fill="#fdb462" stroke="black" cx="252" cy="-66.8" rx="64.84" ry="18"/>
<text text-anchor="middle" x="252" y="-62.6" font-family="Times,serif" font-size="14.00">GroupService</text>
</g>
<!-- GroupService&#45;&gt;GroupModule -->
<g id="edge3" class="edge">
<title>GroupService&#45;&gt;GroupModule</title>
<path fill="none" stroke="black" d="M228.48,-83.88C228.48,-103.14 228.48,-131.8 228.48,-131.8 228.48,-131.8 179.94,-131.8 179.94,-131.8"/>
<polygon fill="black" stroke="black" points="179.94,-128.3 169.94,-131.8 179.94,-135.3 179.94,-128.3"/>
</g>
<!-- MemberService -->
<g id="node5" class="node">
<title>MemberService</title>
<ellipse fill="#fdb462" stroke="black" cx="97" cy="-66.8" rx="72.92" ry="18"/>
<text text-anchor="middle" x="97" y="-62.6" font-family="Times,serif" font-size="14.00">MemberService</text>
</g>
<!-- MemberService&#45;&gt;GroupModule -->
<g id="edge4" class="edge">
<title>MemberService&#45;&gt;GroupModule</title>
<path fill="none" stroke="black" d="M122,-83.88C122,-83.88 122,-103.7 122,-103.7"/>
<polygon fill="black" stroke="black" points="118.5,-103.7 122,-113.7 125.5,-103.7 118.5,-103.7"/>
</g>
</g>
</svg>
