<?xml version="1.0" encoding="UTF-8" standalone="no"?>
<!DOCTYPE svg PUBLIC "-//W3C//DTD SVG 1.1//EN"
 "http://www.w3.org/Graphics/SVG/1.1/DTD/svg11.dtd">
<!-- Generated by graphviz version 5.0.0 (20220707.1540)
 -->
<!-- Title: dependencies Pages: 1 -->
<svg width="401pt" height="247pt"
 viewBox="0.00 0.00 401.00 246.80" xmlns="http://www.w3.org/2000/svg" xmlns:xlink="http://www.w3.org/1999/xlink">
<g id="graph0" class="graph" transform="scale(1 1) rotate(0) translate(4 242.8)">
<title>dependencies</title>
<polygon fill="white" stroke="transparent" points="-4,4 -4,-242.8 397,-242.8 397,4 -4,4"/>
<text text-anchor="middle" x="196.5" y="-8.2" font-family="sans-serif" font-size="14.00">dependencies</text>
<g id="clust1" class="cluster">
<title>cluster_SettingModule</title>
<polygon fill="none" stroke="black" stroke-dasharray="1,5" points="8,-32.8 8,-230.8 385,-230.8 385,-32.8 8,-32.8"/>
</g>
<g id="clust4" class="cluster">
<title>cluster_SettingModule_exports</title>
<polygon fill="none" stroke="black" points="16,-170.8 16,-222.8 377,-222.8 377,-170.8 16,-170.8"/>
</g>
<g id="clust6" class="cluster">
<title>cluster_SettingModule_providers</title>
<polygon fill="none" stroke="black" points="107,-40.8 107,-92.8 273,-92.8 273,-40.8 107,-40.8"/>
</g>
<!-- CategoryService  -->
<g id="node1" class="node">
<title>CategoryService </title>
<polygon fill="#fb8072" stroke="black" points="369.3,-214.8 256.7,-214.8 256.7,-178.8 369.3,-178.8 369.3,-214.8"/>
<text text-anchor="middle" x="313" y="-192.6" font-family="Times,serif" font-size="14.00">CategoryService </text>
</g>
<!-- PolicyService  -->
<g id="node2" class="node">
<title>PolicyService </title>
<polygon fill="#fb8072" stroke="black" points="238.76,-214.8 141.24,-214.8 141.24,-178.8 238.76,-178.8 238.76,-214.8"/>
<text text-anchor="middle" x="190" y="-192.6" font-family="Times,serif" font-size="14.00">PolicyService </text>
</g>
<!-- ReportService  -->
<g id="node3" class="node">
<title>ReportService </title>
<polygon fill="#fb8072" stroke="black" points="123.58,-214.8 24.42,-214.8 24.42,-178.8 123.58,-178.8 123.58,-214.8"/>
<text text-anchor="middle" x="74" y="-192.6" font-family="Times,serif" font-size="14.00">ReportService </text>
</g>
<!-- SettingModule -->
<g id="node4" class="node">
<title>SettingModule</title>
<polygon fill="#8dd3c7" stroke="black" points="239.72,-149.8 236.72,-153.8 215.72,-153.8 212.72,-149.8 140.28,-149.8 140.28,-113.8 239.72,-113.8 239.72,-149.8"/>
<text text-anchor="middle" x="190" y="-127.6" font-family="Times,serif" font-size="14.00">SettingModule</text>
</g>
<!-- SettingModule&#45;&gt;CategoryService  -->
<g id="edge1" class="edge">
<title>SettingModule&#45;&gt;CategoryService </title>
<path fill="none" stroke="black" stroke-dasharray="5,2" d="M239.7,-131.8C251.63,-131.8 261,-131.8 261,-131.8 261,-131.8 261,-168.69 261,-168.69"/>
<polygon fill="black" stroke="black" points="257.5,-168.69 261,-178.69 264.5,-168.69 257.5,-168.69"/>
</g>
<!-- SettingModule&#45;&gt;PolicyService  -->
<g id="edge2" class="edge">
<title>SettingModule&#45;&gt;PolicyService </title>
<path fill="none" stroke="black" stroke-dasharray="5,2" d="M190,-149.91C190,-149.91 190,-168.79 190,-168.79"/>
<polygon fill="black" stroke="black" points="186.5,-168.79 190,-178.79 193.5,-168.79 186.5,-168.79"/>
</g>
<!-- SettingModule&#45;&gt;ReportService  -->
<g id="edge3" class="edge">
<title>SettingModule&#45;&gt;ReportService </title>
<path fill="none" stroke="black" stroke-dasharray="5,2" d="M140.06,-131.8C128.34,-131.8 119.2,-131.8 119.2,-131.8 119.2,-131.8 119.2,-168.69 119.2,-168.69"/>
<polygon fill="black" stroke="black" points="115.7,-168.69 119.2,-178.69 122.7,-168.69 115.7,-168.69"/>
</g>
<!-- CategoryService -->
<g id="node5" class="node">
<title>CategoryService</title>
<ellipse fill="#fdb462" stroke="black" cx="190" cy="-66.8" rx="75.28" ry="18"/>
<text text-anchor="middle" x="190" y="-62.6" font-family="Times,serif" font-size="14.00">CategoryService</text>
</g>
<!-- CategoryService&#45;&gt;SettingModule -->
<g id="edge4" class="edge">
<title>CategoryService&#45;&gt;SettingModule</title>
<path fill="none" stroke="black" d="M190,-84.91C190,-84.91 190,-103.79 190,-103.79"/>
<polygon fill="black" stroke="black" points="186.5,-103.79 190,-113.79 193.5,-103.79 186.5,-103.79"/>
</g>
</g>
</svg>
