<?xml version="1.0" encoding="UTF-8" standalone="no"?>
<!DOCTYPE svg PUBLIC "-//W3C//DTD SVG 1.1//EN"
 "http://www.w3.org/Graphics/SVG/1.1/DTD/svg11.dtd">
<!-- Generated by graphviz version 5.0.0 (20220707.1540)
 -->
<!-- Title: dependencies Pages: 1 -->
<svg width="418pt" height="247pt"
 viewBox="0.00 0.00 418.00 246.80" xmlns="http://www.w3.org/2000/svg" xmlns:xlink="http://www.w3.org/1999/xlink">
<g id="graph0" class="graph" transform="scale(1 1) rotate(0) translate(4 242.8)">
<title>dependencies</title>
<polygon fill="white" stroke="transparent" points="-4,4 -4,-242.8 414,-242.8 414,4 -4,4"/>
<text text-anchor="middle" x="205" y="-8.2" font-family="sans-serif" font-size="14.00">dependencies</text>
<g id="clust1" class="cluster">
<title>cluster_AddressModule</title>
<polygon fill="none" stroke="black" stroke-dasharray="1,5" points="8,-32.8 8,-230.8 402,-230.8 402,-32.8 8,-32.8"/>
</g>
<g id="clust6" class="cluster">
<title>cluster_AddressModule_providers</title>
<polygon fill="none" stroke="black" points="133,-40.8 133,-92.8 293,-92.8 293,-40.8 133,-40.8"/>
</g>
<g id="clust4" class="cluster">
<title>cluster_AddressModule_exports</title>
<polygon fill="none" stroke="black" points="16,-170.8 16,-222.8 394,-222.8 394,-170.8 16,-170.8"/>
</g>
<!-- AddressService  -->
<g id="node1" class="node">
<title>AddressService </title>
<polygon fill="#fb8072" stroke="black" points="385.86,-214.8 278.14,-214.8 278.14,-178.8 385.86,-178.8 385.86,-214.8"/>
<text text-anchor="middle" x="332" y="-192.6" font-family="Times,serif" font-size="14.00">AddressService </text>
</g>
<!-- EventService  -->
<g id="node2" class="node">
<title>EventService </title>
<polygon fill="#fb8072" stroke="black" points="260.13,-214.8 165.87,-214.8 165.87,-178.8 260.13,-178.8 260.13,-214.8"/>
<text text-anchor="middle" x="213" y="-192.6" font-family="Times,serif" font-size="14.00">EventService </text>
</g>
<!-- RespondedService  -->
<g id="node3" class="node">
<title>RespondedService </title>
<polygon fill="#fb8072" stroke="black" points="147.69,-214.8 24.31,-214.8 24.31,-178.8 147.69,-178.8 147.69,-214.8"/>
<text text-anchor="middle" x="86" y="-192.6" font-family="Times,serif" font-size="14.00">RespondedService </text>
</g>
<!-- AddressModule -->
<g id="node4" class="node">
<title>AddressModule</title>
<polygon fill="#8dd3c7" stroke="black" points="265.94,-149.8 262.94,-153.8 241.94,-153.8 238.94,-149.8 160.06,-149.8 160.06,-113.8 265.94,-113.8 265.94,-149.8"/>
<text text-anchor="middle" x="213" y="-127.6" font-family="Times,serif" font-size="14.00">AddressModule</text>
</g>
<!-- AddressModule&#45;&gt;AddressService  -->
<g id="edge1" class="edge">
<title>AddressModule&#45;&gt;AddressService </title>
<path fill="none" stroke="black" stroke-dasharray="5,2" d="M265.87,-131.8C298.89,-131.8 335.16,-131.8 335.16,-131.8 335.16,-131.8 335.16,-168.69 335.16,-168.69"/>
<polygon fill="black" stroke="black" points="331.66,-168.69 335.16,-178.69 338.66,-168.69 331.66,-168.69"/>
</g>
<!-- AddressModule&#45;&gt;EventService  -->
<g id="edge2" class="edge">
<title>AddressModule&#45;&gt;EventService </title>
<path fill="none" stroke="black" stroke-dasharray="5,2" d="M213,-149.91C213,-149.91 213,-168.79 213,-168.79"/>
<polygon fill="black" stroke="black" points="209.5,-168.79 213,-178.79 216.5,-168.79 209.5,-168.79"/>
</g>
<!-- AddressModule&#45;&gt;RespondedService  -->
<g id="edge3" class="edge">
<title>AddressModule&#45;&gt;RespondedService </title>
<path fill="none" stroke="black" stroke-dasharray="5,2" d="M160.02,-131.8C123.97,-131.8 82.76,-131.8 82.76,-131.8 82.76,-131.8 82.76,-168.69 82.76,-168.69"/>
<polygon fill="black" stroke="black" points="79.26,-168.69 82.76,-178.69 86.26,-168.69 79.26,-168.69"/>
</g>
<!-- AddressService -->
<g id="node5" class="node">
<title>AddressService</title>
<ellipse fill="#fdb462" stroke="black" cx="213" cy="-66.8" rx="71.78" ry="18"/>
<text text-anchor="middle" x="213" y="-62.6" font-family="Times,serif" font-size="14.00">AddressService</text>
</g>
<!-- AddressService&#45;&gt;AddressModule -->
<g id="edge4" class="edge">
<title>AddressService&#45;&gt;AddressModule</title>
<path fill="none" stroke="black" d="M213,-84.91C213,-84.91 213,-103.79 213,-103.79"/>
<polygon fill="black" stroke="black" points="209.5,-103.79 213,-113.79 216.5,-103.79 209.5,-103.79"/>
</g>
</g>
</svg>
