<?xml version="1.0" encoding="UTF-8" standalone="no"?>
<!DOCTYPE svg PUBLIC "-//W3C//DTD SVG 1.1//EN"
 "http://www.w3.org/Graphics/SVG/1.1/DTD/svg11.dtd">
<!-- Generated by graphviz version 5.0.0 (20220707.1540)
 -->
<!-- Title: dependencies Pages: 1 -->
<svg width="1384pt" height="174pt"
 viewBox="0.00 0.00 1384.00 173.80" xmlns="http://www.w3.org/2000/svg" xmlns:xlink="http://www.w3.org/1999/xlink">
<g id="graph0" class="graph" transform="scale(1 1) rotate(0) translate(4 169.8)">
<title>dependencies</title>
<polygon fill="white" stroke="transparent" points="-4,4 -4,-169.8 1380,-169.8 1380,4 -4,4"/>
<text text-anchor="middle" x="688" y="-8.2" font-family="sans-serif" font-size="14.00">dependencies</text>
<g id="clust1" class="cluster">
<title>cluster_AppModule</title>
<polygon fill="none" stroke="black" stroke-dasharray="1,5" points="8,-32.8 8,-157.8 1368,-157.8 1368,-32.8 8,-32.8"/>
</g>
<g id="clust3" class="cluster">
<title>cluster_AppModule_imports</title>
<polygon fill="none" stroke="black" points="16,-40.8 16,-92.8 1360,-92.8 1360,-40.8 16,-40.8"/>
</g>
<!-- AddressModule -->
<g id="node1" class="node">
<title>AddressModule</title>
<polygon fill="#8dd3c7" stroke="black" points="1351.94,-84.8 1348.94,-88.8 1327.94,-88.8 1324.94,-84.8 1246.06,-84.8 1246.06,-48.8 1351.94,-48.8 1351.94,-84.8"/>
<text text-anchor="middle" x="1299" y="-62.6" font-family="Times,serif" font-size="14.00">AddressModule</text>
</g>
<!-- AppModule -->
<g id="node13" class="node">
<title>AppModule</title>
<polygon fill="#8dd3c7" stroke="black" points="720.66,-149.8 717.66,-153.8 696.66,-153.8 693.66,-149.8 637.34,-149.8 637.34,-113.8 720.66,-113.8 720.66,-149.8"/>
<text text-anchor="middle" x="679" y="-127.6" font-family="Times,serif" font-size="14.00">AppModule</text>
</g>
<!-- AddressModule&#45;&gt;AppModule -->
<g id="edge1" class="edge">
<title>AddressModule&#45;&gt;AppModule</title>
<path fill="none" stroke="black" d="M1299,-84.89C1299,-107.93 1299,-144.8 1299,-144.8 1299,-144.8 731.13,-144.8 731.13,-144.8"/>
<polygon fill="black" stroke="black" points="731.13,-141.3 721.13,-144.8 731.13,-148.3 731.13,-141.3"/>
</g>
<!-- AuthModule -->
<g id="node2" class="node">
<title>AuthModule</title>
<polygon fill="#8dd3c7" stroke="black" points="1228.55,-84.8 1225.55,-88.8 1204.55,-88.8 1201.55,-84.8 1141.45,-84.8 1141.45,-48.8 1228.55,-48.8 1228.55,-84.8"/>
<text text-anchor="middle" x="1185" y="-62.6" font-family="Times,serif" font-size="14.00">AuthModule</text>
</g>
<!-- AuthModule&#45;&gt;AppModule -->
<g id="edge2" class="edge">
<title>AuthModule&#45;&gt;AppModule</title>
<path fill="none" stroke="black" d="M1185,-85.08C1185,-106.12 1185,-137.8 1185,-137.8 1185,-137.8 730.84,-137.8 730.84,-137.8"/>
<polygon fill="black" stroke="black" points="730.84,-134.3 720.84,-137.8 730.84,-141.3 730.84,-134.3"/>
</g>
<!-- CoursesModule -->
<g id="node3" class="node">
<title>CoursesModule</title>
<polygon fill="#8dd3c7" stroke="black" points="1123.16,-84.8 1120.16,-88.8 1099.16,-88.8 1096.16,-84.8 1018.84,-84.8 1018.84,-48.8 1123.16,-48.8 1123.16,-84.8"/>
<text text-anchor="middle" x="1071" y="-62.6" font-family="Times,serif" font-size="14.00">CoursesModule</text>
</g>
<!-- CoursesModule&#45;&gt;AppModule -->
<g id="edge3" class="edge">
<title>CoursesModule&#45;&gt;AppModule</title>
<path fill="none" stroke="black" d="M1071,-84.91C1071,-104.14 1071,-131.8 1071,-131.8 1071,-131.8 730.95,-131.8 730.95,-131.8"/>
<polygon fill="black" stroke="black" points="730.95,-128.3 720.95,-131.8 730.95,-135.3 730.95,-128.3"/>
</g>
<!-- ForumModule -->
<g id="node4" class="node">
<title>ForumModule</title>
<polygon fill="#8dd3c7" stroke="black" points="1000.39,-84.8 997.39,-88.8 976.39,-88.8 973.39,-84.8 903.61,-84.8 903.61,-48.8 1000.39,-48.8 1000.39,-84.8"/>
<text text-anchor="middle" x="952" y="-62.6" font-family="Times,serif" font-size="14.00">ForumModule</text>
</g>
<!-- ForumModule&#45;&gt;AppModule -->
<g id="edge4" class="edge">
<title>ForumModule&#45;&gt;AppModule</title>
<path fill="none" stroke="black" d="M952,-84.82C952,-102.17 952,-125.8 952,-125.8 952,-125.8 730.76,-125.8 730.76,-125.8"/>
<polygon fill="black" stroke="black" points="730.76,-122.3 720.76,-125.8 730.76,-129.3 730.76,-122.3"/>
</g>
<!-- GroupModule -->
<g id="node5" class="node">
<title>GroupModule</title>
<polygon fill="#8dd3c7" stroke="black" points="885.82,-84.8 882.82,-88.8 861.82,-88.8 858.82,-84.8 790.18,-84.8 790.18,-48.8 885.82,-48.8 885.82,-84.8"/>
<text text-anchor="middle" x="838" y="-62.6" font-family="Times,serif" font-size="14.00">GroupModule</text>
</g>
<!-- GroupModule&#45;&gt;AppModule -->
<g id="edge5" class="edge">
<title>GroupModule&#45;&gt;AppModule</title>
<path fill="none" stroke="black" d="M838,-85.04C838,-100.37 838,-119.8 838,-119.8 838,-119.8 730.78,-119.8 730.78,-119.8"/>
<polygon fill="black" stroke="black" points="730.78,-116.3 720.78,-119.8 730.78,-123.3 730.78,-116.3"/>
</g>
<!-- JobsModule -->
<g id="node6" class="node">
<title>JobsModule</title>
<polygon fill="#8dd3c7" stroke="black" points="772.45,-84.8 769.45,-88.8 748.45,-88.8 745.45,-84.8 687.55,-84.8 687.55,-48.8 772.45,-48.8 772.45,-84.8"/>
<text text-anchor="middle" x="730" y="-62.6" font-family="Times,serif" font-size="14.00">JobsModule</text>
</g>
<!-- JobsModule&#45;&gt;AppModule -->
<g id="edge6" class="edge">
<title>JobsModule&#45;&gt;AppModule</title>
<path fill="none" stroke="black" d="M704.3,-84.91C704.3,-84.91 704.3,-103.79 704.3,-103.79"/>
<polygon fill="black" stroke="black" points="700.8,-103.79 704.3,-113.79 707.8,-103.79 700.8,-103.79"/>
</g>
<!-- PostModule -->
<g id="node7" class="node">
<title>PostModule</title>
<polygon fill="#8dd3c7" stroke="black" points="669.68,-84.8 666.68,-88.8 645.68,-88.8 642.68,-84.8 586.32,-84.8 586.32,-48.8 669.68,-48.8 669.68,-84.8"/>
<text text-anchor="middle" x="628" y="-62.6" font-family="Times,serif" font-size="14.00">PostModule</text>
</g>
<!-- PostModule&#45;&gt;AppModule -->
<g id="edge7" class="edge">
<title>PostModule&#45;&gt;AppModule</title>
<path fill="none" stroke="black" d="M653.5,-84.91C653.5,-84.91 653.5,-103.79 653.5,-103.79"/>
<polygon fill="black" stroke="black" points="650,-103.79 653.5,-113.79 657,-103.79 650,-103.79"/>
</g>
<!-- ProfileModule -->
<g id="node8" class="node">
<title>ProfileModule</title>
<polygon fill="#8dd3c7" stroke="black" points="567.66,-84.8 564.66,-88.8 543.66,-88.8 540.66,-84.8 470.34,-84.8 470.34,-48.8 567.66,-48.8 567.66,-84.8"/>
<text text-anchor="middle" x="519" y="-62.6" font-family="Times,serif" font-size="14.00">ProfileModule</text>
</g>
<!-- ProfileModule&#45;&gt;AppModule -->
<g id="edge8" class="edge">
<title>ProfileModule&#45;&gt;AppModule</title>
<path fill="none" stroke="black" d="M519,-85.04C519,-100.37 519,-119.8 519,-119.8 519,-119.8 626.96,-119.8 626.96,-119.8"/>
<polygon fill="black" stroke="black" points="626.96,-123.3 636.96,-119.8 626.96,-116.3 626.96,-123.3"/>
</g>
<!-- SettingModule -->
<g id="node9" class="node">
<title>SettingModule</title>
<polygon fill="#8dd3c7" stroke="black" points="452.72,-84.8 449.72,-88.8 428.72,-88.8 425.72,-84.8 353.28,-84.8 353.28,-48.8 452.72,-48.8 452.72,-84.8"/>
<text text-anchor="middle" x="403" y="-62.6" font-family="Times,serif" font-size="14.00">SettingModule</text>
</g>
<!-- SettingModule&#45;&gt;AppModule -->
<g id="edge9" class="edge">
<title>SettingModule&#45;&gt;AppModule</title>
<path fill="none" stroke="black" d="M403,-84.82C403,-102.17 403,-125.8 403,-125.8 403,-125.8 627.08,-125.8 627.08,-125.8"/>
<polygon fill="black" stroke="black" points="627.08,-129.3 637.08,-125.8 627.08,-122.3 627.08,-129.3"/>
</g>
<!-- ShopModule -->
<g id="node10" class="node">
<title>ShopModule</title>
<polygon fill="#8dd3c7" stroke="black" points="335.34,-84.8 332.34,-88.8 311.34,-88.8 308.34,-84.8 246.66,-84.8 246.66,-48.8 335.34,-48.8 335.34,-84.8"/>
<text text-anchor="middle" x="291" y="-62.6" font-family="Times,serif" font-size="14.00">ShopModule</text>
</g>
<!-- ShopModule&#45;&gt;AppModule -->
<g id="edge10" class="edge">
<title>ShopModule&#45;&gt;AppModule</title>
<path fill="none" stroke="black" d="M291,-84.91C291,-104.14 291,-131.8 291,-131.8 291,-131.8 627.11,-131.8 627.11,-131.8"/>
<polygon fill="black" stroke="black" points="627.11,-135.3 637.11,-131.8 627.11,-128.3 627.11,-135.3"/>
</g>
<!-- UploadModule -->
<g id="node11" class="node">
<title>UploadModule</title>
<polygon fill="#8dd3c7" stroke="black" points="228.27,-84.8 225.27,-88.8 204.27,-88.8 201.27,-84.8 127.73,-84.8 127.73,-48.8 228.27,-48.8 228.27,-84.8"/>
<text text-anchor="middle" x="178" y="-62.6" font-family="Times,serif" font-size="14.00">UploadModule</text>
</g>
<!-- UploadModule&#45;&gt;AppModule -->
<g id="edge11" class="edge">
<title>UploadModule&#45;&gt;AppModule</title>
<path fill="none" stroke="black" d="M178,-85.08C178,-106.12 178,-137.8 178,-137.8 178,-137.8 627.15,-137.8 627.15,-137.8"/>
<polygon fill="black" stroke="black" points="627.15,-141.3 637.15,-137.8 627.15,-134.3 627.15,-141.3"/>
</g>
<!-- UserModule -->
<g id="node12" class="node">
<title>UserModule</title>
<polygon fill="#8dd3c7" stroke="black" points="109.99,-84.8 106.99,-88.8 85.99,-88.8 82.99,-84.8 24.01,-84.8 24.01,-48.8 109.99,-48.8 109.99,-84.8"/>
<text text-anchor="middle" x="67" y="-62.6" font-family="Times,serif" font-size="14.00">UserModule</text>
</g>
<!-- UserModule&#45;&gt;AppModule -->
<g id="edge12" class="edge">
<title>UserModule&#45;&gt;AppModule</title>
<path fill="none" stroke="black" d="M67,-84.89C67,-107.93 67,-144.8 67,-144.8 67,-144.8 626.93,-144.8 626.93,-144.8"/>
<polygon fill="black" stroke="black" points="626.93,-148.3 636.93,-144.8 626.93,-141.3 626.93,-148.3"/>
</g>
</g>
</svg>
