<?xml version="1.0" encoding="UTF-8" standalone="no"?>
<!DOCTYPE svg PUBLIC "-//W3C//DTD SVG 1.1//EN"
 "http://www.w3.org/Graphics/SVG/1.1/DTD/svg11.dtd">
<!-- Generated by graphviz version 5.0.0 (20220707.1540)
 -->
<!-- Title: dependencies Pages: 1 -->
<svg width="454pt" height="247pt"
 viewBox="0.00 0.00 454.00 246.80" xmlns="http://www.w3.org/2000/svg" xmlns:xlink="http://www.w3.org/1999/xlink">
<g id="graph0" class="graph" transform="scale(1 1) rotate(0) translate(4 242.8)">
<title>dependencies</title>
<polygon fill="white" stroke="transparent" points="-4,4 -4,-242.8 450,-242.8 450,4 -4,4"/>
<text text-anchor="middle" x="223" y="-8.2" font-family="sans-serif" font-size="14.00">dependencies</text>
<g id="clust1" class="cluster">
<title>cluster_ForumModule</title>
<polygon fill="none" stroke="black" stroke-dasharray="1,5" points="8,-32.8 8,-230.8 438,-230.8 438,-32.8 8,-32.8"/>
</g>
<g id="clust4" class="cluster">
<title>cluster_ForumModule_exports</title>
<polygon fill="none" stroke="black" points="61,-170.8 61,-222.8 385,-222.8 385,-170.8 61,-170.8"/>
</g>
<g id="clust6" class="cluster">
<title>cluster_ForumModule_providers</title>
<polygon fill="none" stroke="black" points="16,-40.8 16,-92.8 430,-92.8 430,-40.8 16,-40.8"/>
</g>
<!-- BlogService  -->
<g id="node1" class="node">
<title>BlogService </title>
<polygon fill="#fb8072" stroke="black" points="377.21,-214.8 288.79,-214.8 288.79,-178.8 377.21,-178.8 377.21,-214.8"/>
<text text-anchor="middle" x="333" y="-192.6" font-family="Times,serif" font-size="14.00">BlogService </text>
</g>
<!-- ReplyService  -->
<g id="node2" class="node">
<title>ReplyService </title>
<polygon fill="#fb8072" stroke="black" points="270.42,-214.8 175.58,-214.8 175.58,-178.8 270.42,-178.8 270.42,-214.8"/>
<text text-anchor="middle" x="223" y="-192.6" font-family="Times,serif" font-size="14.00">ReplyService </text>
</g>
<!-- VoteService  -->
<g id="node3" class="node">
<title>VoteService </title>
<polygon fill="#fb8072" stroke="black" points="157.19,-214.8 68.81,-214.8 68.81,-178.8 157.19,-178.8 157.19,-214.8"/>
<text text-anchor="middle" x="113" y="-192.6" font-family="Times,serif" font-size="14.00">VoteService </text>
</g>
<!-- ForumModule -->
<g id="node4" class="node">
<title>ForumModule</title>
<polygon fill="#8dd3c7" stroke="black" points="271.39,-149.8 268.39,-153.8 247.39,-153.8 244.39,-149.8 174.61,-149.8 174.61,-113.8 271.39,-113.8 271.39,-149.8"/>
<text text-anchor="middle" x="223" y="-127.6" font-family="Times,serif" font-size="14.00">ForumModule</text>
</g>
<!-- ForumModule&#45;&gt;BlogService  -->
<g id="edge1" class="edge">
<title>ForumModule&#45;&gt;BlogService </title>
<path fill="none" stroke="black" stroke-dasharray="5,2" d="M271.57,-137.8C285.23,-137.8 296.44,-137.8 296.44,-137.8 296.44,-137.8 296.44,-168.78 296.44,-168.78"/>
<polygon fill="black" stroke="black" points="292.94,-168.78 296.44,-178.78 299.94,-168.78 292.94,-168.78"/>
</g>
<!-- ForumModule&#45;&gt;ReplyService  -->
<g id="edge2" class="edge">
<title>ForumModule&#45;&gt;ReplyService </title>
<path fill="none" stroke="black" stroke-dasharray="5,2" d="M223,-149.91C223,-149.91 223,-168.79 223,-168.79"/>
<polygon fill="black" stroke="black" points="219.5,-168.79 223,-178.79 226.5,-168.79 219.5,-168.79"/>
</g>
<!-- ForumModule&#45;&gt;VoteService  -->
<g id="edge3" class="edge">
<title>ForumModule&#45;&gt;VoteService </title>
<path fill="none" stroke="black" stroke-dasharray="5,2" d="M174.42,-137.8C160.76,-137.8 149.56,-137.8 149.56,-137.8 149.56,-137.8 149.56,-168.78 149.56,-168.78"/>
<polygon fill="black" stroke="black" points="146.06,-168.78 149.56,-178.78 153.06,-168.78 146.06,-168.78"/>
</g>
<!-- BlogService -->
<g id="node5" class="node">
<title>BlogService</title>
<ellipse fill="#fdb462" stroke="black" cx="363" cy="-66.8" rx="58.55" ry="18"/>
<text text-anchor="middle" x="363" y="-62.6" font-family="Times,serif" font-size="14.00">BlogService</text>
</g>
<!-- BlogService&#45;&gt;ForumModule -->
<g id="edge4" class="edge">
<title>BlogService&#45;&gt;ForumModule</title>
<path fill="none" stroke="black" d="M340.79,-83.55C340.79,-100.99 340.79,-125.8 340.79,-125.8 340.79,-125.8 281.59,-125.8 281.59,-125.8"/>
<polygon fill="black" stroke="black" points="281.59,-122.3 271.59,-125.8 281.59,-129.3 281.59,-122.3"/>
</g>
<!-- ReplyService -->
<g id="node6" class="node">
<title>ReplyService</title>
<ellipse fill="#fdb462" stroke="black" cx="223" cy="-66.8" rx="63.12" ry="18"/>
<text text-anchor="middle" x="223" y="-62.6" font-family="Times,serif" font-size="14.00">ReplyService</text>
</g>
<!-- ReplyService&#45;&gt;ForumModule -->
<g id="edge5" class="edge">
<title>ReplyService&#45;&gt;ForumModule</title>
<path fill="none" stroke="black" d="M223,-84.91C223,-84.91 223,-103.79 223,-103.79"/>
<polygon fill="black" stroke="black" points="219.5,-103.79 223,-113.79 226.5,-103.79 219.5,-103.79"/>
</g>
<!-- VoteService -->
<g id="node7" class="node">
<title>VoteService</title>
<ellipse fill="#fdb462" stroke="black" cx="83" cy="-66.8" rx="58.53" ry="18"/>
<text text-anchor="middle" x="83" y="-62.6" font-family="Times,serif" font-size="14.00">VoteService</text>
</g>
<!-- VoteService&#45;&gt;ForumModule -->
<g id="edge6" class="edge">
<title>VoteService&#45;&gt;ForumModule</title>
<path fill="none" stroke="black" d="M105.21,-83.55C105.21,-100.99 105.21,-125.8 105.21,-125.8 105.21,-125.8 164.41,-125.8 164.41,-125.8"/>
<polygon fill="black" stroke="black" points="164.41,-129.3 174.41,-125.8 164.41,-122.3 164.41,-129.3"/>
</g>
</g>
</svg>
